<svg xmlns="http://www.w3.org/2000/svg" viewBox="0 0 256 256">
  <rect width="256" height="256" fill="#1a73e8"/>
  <path d="M70 90h60v40H70z" fill="#fff"/>
  <path d="M130 90h30l20 20v20h-50z" fill="#fff"/>
  <rect x="70" y="130" width="110" height="20" fill="#fff"/>
  <circle cx="90" cy="160" r="12" fill="#ff6b35"/>
  <circle cx="160" cy="160" r="12" fill="#ff6b35"/>
  <path d="M190 70c8.8 0 16 7.2 16 16s-7.2 16-16 16-16-7.2-16-16 7.2-16 16-16m0-8c-13.3 0-24 10.7-24 24s10.7 24 24 24 24-10.7 24-24-10.7-24-24-24z" fill="#ff6b35"/>
  <circle cx="190" cy="86" r="6" fill="#ff6b35"/>
</svg>